# xmcd CD database file
# Copyright (C) 1996 Ti Kan
#
# Track frame offsets:
#	187
#	13487
#	28715
#	40677
#	50630
#	65155
#	82017
#	93667
#	106715
#	116225
#
# Disc length: 1698 seconds
#
# Revision: 1
# Processed by: cddbd v1.4b41PL1 Copyright (c) Steve Scherf et al.
# Submitted via: EasyCD 2.21 - (C) 1996 Greg Leichner
#
DISCID=8b06a00a
DTITLE=Gene Watson - Greatest Hits
DYEAR=1900
DGENRE=
TTITLE0=Between This Time And The Next Time
TTITLE1=Maybe I Should Have Been Listening
TTITLE2=Fourteen Carat Mind
TTITLE3=Speak Softly (You're Talking To My Heart)
TTITLE4=This Dream's On Me
TTITLE5=What She Don't KNow Won't Hurt Her
TTITLE6=You're Out Doing What I'am Here Doing Without
TTITLE7=Sometimes I Get Lucky Amd Forget
TTITLE8=Drinkin' My Way Back Home
TTITLE9=Forever Again
EXTD=
EXTT0=
EXTT1=
EXTT2=
EXTT3=
EXTT4=
EXTT5=
EXTT6=
EXTT7=
EXTT8=
EXTT9=
PLAYORDER=
